<svg viewBox="0 0 24 24" xmlns="http://www.w3.org/2000/svg" fill="currentColor">
  <path fill-rule="evenodd" clip-rule="evenodd" d="M6 10a6 6 0 1 1 12 0c0 1.028-.364 2.177-.982 3.368-.613 1.182-1.442 2.341-2.29 3.371A32.268 32.268 0 0 1 12 19.65a32.263 32.263 0 0 1-2.728-2.909c-.848-1.03-1.677-2.19-2.29-3.372C6.363 12.177 6 11.028 6 10Zm5.349 11.759L12 21l.65.76a1 1 0 0 1-1.301-.001Zm0 0L12 21c.65.76.652.759.652.759l.001-.002.005-.004.018-.015a20.69 20.69 0 0 0 .297-.265 34.235 34.235 0 0 0 3.299-3.462c.902-1.095 1.823-2.374 2.522-3.723C19.489 12.948 20 11.472 20 10a8 8 0 1 0-16 0c0 1.472.511 2.948 1.206 4.288.7 1.35 1.62 2.628 2.522 3.723a34.237 34.237 0 0 0 3.596 3.727l.018.015.005.004.002.002ZM12 12a2 2 0 1 0 0-4 2 2 0 0 0 0 4Z"/>
</svg>
