<svg viewBox="0 0 40 40" xmlns="http://www.w3.org/2000/svg" width="40" height="40" fill="currentColor" aria-hidden="true">
  <circle cx="20" cy="20" r="18" fill="none" stroke="currentColor" stroke-width="2"/>
  <g transform="translate(8,8)">
    <path fill-rule="evenodd" clip-rule="evenodd" d="M11 13.586V3a1 1 0 1 1 2 0v10.59l2.295-2.295a1 1 0 0 1 1.414 1.414l-3.993 3.993a1.01 1.01 0 0 1-1.428 0L7.295 12.71a1 1 0 1 1 1.414-1.414L11 13.585ZM2 21a1 1 0 0 1 1-1h18a1 1 0 1 1 0 2H3a1 1 0 0 1-1-1Z"/>
  </g>
</svg>
