<svg xmlns="http://www.w3.org/2000/svg" viewBox="0 0 32 32" fill="currentColor"><path d="M16 2.881c4.275 0 4.781.019 6.462.094 1.563.07 2.406.334 2.969.556.744.29 1.281.637 1.837 1.194.563.556.906 1.094 1.194 1.838.219.562.481 1.406.556 2.969.075 1.681.094 2.187.094 6.462s-.019 4.781-.094 6.463c-.075 1.562-.337 2.406-.556 2.969-.288.743-.631 1.281-1.194 1.837-.556.563-1.094.906-1.837 1.194-.563.219-1.406.481-2.969.556-1.681.075-2.188.094-6.463.094s-4.781-.019-6.462-.094c-1.563-.075-2.406-.337-2.969-.556-.744-.288-1.281-.631-1.838-1.194-.562-.556-.906-1.094-1.193-1.837-.219-.563-.482-1.407-.557-2.969-.074-1.682-.093-2.188-.093-6.463s.019-4.781.093-6.462c.075-1.563.338-2.407.557-2.969.287-.744.631-1.282 1.193-1.838.557-.562 1.094-.906 1.838-1.193.563-.219 1.406-.482 2.969-.557 1.681-.074 2.187-.093 6.462-.093zM16 0c-4.344 0-4.887.019-6.594.094C7.7.169 6.35.444 5.175.893 3.956 1.363 2.919 1.994 1.888 3.025.856 4.056.225 5.094-.244 6.312c-.45 1.175-.725 2.525-.8 4.231C-1.119 12.25-1.1 12.794-1.1 17.137s.019 4.887.094 6.594c.075 1.706.35 3.056.8 4.231.469 1.219 1.1 2.256 2.131 3.288 1.031 1.031 2.069 1.662 3.288 2.131 1.175.45 2.525.725 4.231.8 1.706.075 2.25.094 6.594.094s4.888-.019 6.594-.094c1.706-.075 3.056-.35 4.231-.8 1.219-.469 2.256-1.1 3.288-2.131 1.031-1.031 1.663-2.069 2.131-3.288.45-1.175.725-2.525.8-4.231.075-1.706.094-2.25.094-6.594s-.019-4.887-.094-6.594c-.075-1.706-.35-3.056-.8-4.231-.469-1.219-1.1-2.256-2.131-3.288C29.1 1.994 28.062 1.363 26.844.893 25.669.444 24.319.169 22.612.094 20.906.019 20.362 0 16.019 0z"/><path d="M16 7.781c-4.537 0-8.219 3.681-8.219 8.219s3.681 8.219 8.219 8.219 8.219-3.681 8.219-8.219-3.681-8.219-8.219-8.219zm0 13.55c-2.944 0-5.331-2.387-5.331-5.331s2.387-5.331 5.331-5.331 5.331 2.387 5.331 5.331-2.387 5.331-5.331 5.331zM26.462 7.456c0 1.06-.862 1.919-1.919 1.919s-1.919-.859-1.919-1.919.862-1.919 1.919-1.919 1.919.862 1.919 1.919z"/></svg>
