<svg xmlns="http://www.w3.org/2000/svg" viewBox="0 0 32 32" fill="currentColor"><path d="M27.5 0h-23C2.015 0 0 2.015 0 4.5v23C0 29.985 2.015 32 4.5 32h23c2.485 0 4.5-2.015 4.5-4.5v-23C32 2.015 29.985 0 27.5 0zM9.6 27.2H4.8V12h4.8v15.2zM7.2 10.1c-1.545 0-2.8-1.255-2.8-2.8S5.655 4.5 7.2 4.5s2.8 1.255 2.8 2.8-1.255 2.8-2.8 2.8zM27.2 27.2h-4.8v-7.4c0-1.765-.035-4.035-2.46-4.035-2.46 0-2.84 1.92-2.84 3.905V27.2H12.3V12h4.61v2.075h.065c.64-1.215 2.205-2.5 4.54-2.5 4.86 0 5.755 3.2 5.755 7.355v8.27z"/></svg>
