<svg xmlns="http://www.w3.org/2000/svg" viewBox="0 0 32 32" fill="currentColor"><path d="M31.327 8.273s-.31-2.187-1.26-3.15c-1.205-1.262-2.556-1.267-3.174-1.341C22.453 3.4 16.005 3.4 16.005 3.4h-.012s-6.448 0-10.888.382c-.618.074-1.968.079-3.174 1.341-.95.963-1.258 3.15-1.258 3.15S.363 10.835.363 13.397v2.398c0 2.562.31 5.124.31 5.124s.31 2.187 1.258 3.15c1.206 1.262 2.79 1.222 3.495 1.355C7.96 25.672 16 25.75 16 25.75s6.453-.01 10.893-.391c.618-.075 1.969-.08 3.174-1.342.95-.963 1.26-3.15 1.26-3.15s.31-2.562.31-5.124v-2.398c0-2.562-.31-5.124-.31-5.124zM12.727 20.758V10.233l8.546 5.275-8.546 5.25z"/></svg>
