<svg width="80" height="80" viewBox="0 0 80 80" fill="none" xmlns="http://www.w3.org/2000/svg">
<path d="M9.43994 36.1599C8.31994 36.1599 7.43994 37.0399 7.43994 38.1599V69.6799C7.43994 70.7999 8.31994 71.6799 9.43994 71.6799H20.3199C21.4399 71.6799 22.3199 70.7999 22.3199 69.6799V38.1599C22.3199 37.0399 21.4399 36.1599 20.3199 36.1599H9.43994Z" fill="#F9383D"/>
<mask id="mask0_2027_3404" style="mask-type:luminance" maskUnits="userSpaceOnUse" x="7" y="36" width="16" height="36">
<mask id="mask1_2027_3404" style="mask-type:luminance" maskUnits="userSpaceOnUse" x="7" y="36" width="16" height="36">
<mask id="mask2_2027_3404" style="mask-type:luminance" maskUnits="userSpaceOnUse" x="7" y="36" width="16" height="36">
<path d="M9.43994 36.1599C8.31994 36.1599 7.43994 37.0399 7.43994 38.1599V69.6799C7.43994 70.7999 8.31994 71.6799 9.43994 71.6799H20.3199C21.4399 71.6799 22.3199 70.7999 22.3199 69.6799V38.1599C22.3199 37.0399 21.4399 36.1599 20.3199 36.1599H9.43994Z" fill="white"/>
</mask>
<g mask="url(#mask2_2027_3404)">
<path d="M9.43994 36.1599C8.31994 36.1599 7.43994 37.0399 7.43994 38.1599V69.6799C7.43994 70.7999 8.31994 71.6799 9.43994 71.6799H20.3199C21.4399 71.6799 22.3199 70.7999 22.3199 69.6799V38.1599C22.3199 37.0399 21.4399 36.1599 20.3199 36.1599H9.43994Z" fill="white"/>
</g>
</mask>
<g mask="url(#mask1_2027_3404)">
<path d="M7.35964 36.1599C5.99964 36.1599 4.87964 37.0399 4.87964 38.1599V69.6799C4.87964 70.7999 5.99964 71.6799 7.35964 71.6799H20.8796C22.2396 71.6799 23.3596 70.7999 23.3596 69.6799V38.1599C23.3596 37.0399 22.2396 36.1599 20.8796 36.1599H7.35964Z" fill="#F9383D"/>
</g>
</mask>
<g mask="url(#mask0_2027_3404)">
<mask id="mask3_2027_3404" style="mask-type:luminance" maskUnits="userSpaceOnUse" x="7" y="36" width="16" height="36">
<path d="M9.43994 36.1599C8.31994 36.1599 7.43994 37.0399 7.43994 38.1599V69.6799C7.43994 70.7999 8.31994 71.6799 9.43994 71.6799H20.3199C21.4399 71.6799 22.3199 70.7999 22.3199 69.6799V38.1599C22.3199 37.0399 21.4399 36.1599 20.3199 36.1599H9.43994Z" fill="white"/>
</mask>
<g mask="url(#mask3_2027_3404)">
<path opacity="0.5" d="M14.8796 36.1599V100.16H23.6796V36.1599H14.8796Z" fill="url(#paint0_linear_2027_3404)"/>
</g>
</g>
<path d="M34.3999 21.9199C33.2799 21.9199 32.3999 22.7999 32.3999 23.9199V69.6799C32.3999 70.7999 33.2799 71.6799 34.3999 71.6799H45.2799C46.3999 71.6799 47.2799 70.7999 47.2799 69.6799V23.9199C47.2799 22.7999 46.3999 21.9199 45.2799 21.9199H34.3999Z" fill="#759EFF"/>
<mask id="mask4_2027_3404" style="mask-type:luminance" maskUnits="userSpaceOnUse" x="32" y="21" width="16" height="51">
<mask id="mask5_2027_3404" style="mask-type:luminance" maskUnits="userSpaceOnUse" x="32" y="21" width="16" height="51">
<mask id="mask6_2027_3404" style="mask-type:luminance" maskUnits="userSpaceOnUse" x="32" y="21" width="16" height="51">
<path d="M34.3999 21.9199C33.2799 21.9199 32.3999 22.7999 32.3999 23.9199V69.6799C32.3999 70.7999 33.2799 71.6799 34.3999 71.6799H45.2799C46.3999 71.6799 47.2799 70.7999 47.2799 69.6799V23.9199C47.2799 22.7999 46.3999 21.9199 45.2799 21.9199H34.3999Z" fill="white"/>
</mask>
<g mask="url(#mask6_2027_3404)">
<path d="M34.3999 21.9199C33.2799 21.9199 32.3999 22.7999 32.3999 23.9199V69.6799C32.3999 70.7999 33.2799 71.6799 34.3999 71.6799H45.2799C46.3999 71.6799 47.2799 70.7999 47.2799 69.6799V23.9199C47.2799 22.7999 46.3999 21.9199 45.2799 21.9199H34.3999Z" fill="white"/>
</g>
</mask>
<g mask="url(#mask5_2027_3404)">
<path d="M33.2 14.5598C31.84 14.5598 30.72 15.6798 30.72 17.0398V73.2798C30.72 74.6398 31.84 75.7598 33.2 75.7598H46.56C47.92 75.7598 49.04 74.6398 49.04 73.2798V17.0398C49.04 15.6798 47.92 14.5598 46.56 14.5598H33.2Z" fill="#759EFF"/>
</g>
</mask>
<g mask="url(#mask4_2027_3404)">
<mask id="mask7_2027_3404" style="mask-type:luminance" maskUnits="userSpaceOnUse" x="32" y="21" width="16" height="51">
<path d="M34.3999 21.9199C33.2799 21.9199 32.3999 22.7999 32.3999 23.9199V69.6799C32.3999 70.7999 33.2799 71.6799 34.3999 71.6799H45.2799C46.3999 71.6799 47.2799 70.7999 47.2799 69.6799V23.9199C47.2799 22.7999 46.3999 21.9199 45.2799 21.9199H34.3999Z" fill="white"/>
</mask>
<g mask="url(#mask7_2027_3404)">
<path opacity="0.5" d="M39.8398 14.6399V93.2799H48.5598V14.6399H39.8398Z" fill="url(#paint1_linear_2027_3404)"/>
</g>
</g>
<path d="M58.3201 7.67993C57.2001 7.67993 56.3201 8.55993 56.3201 9.67993V69.6799C56.3201 70.7999 57.2001 71.6799 58.3201 71.6799H69.2001C70.3201 71.6799 71.2001 70.7999 71.2001 69.6799V9.67993C71.2001 8.55993 70.3201 7.67993 69.2001 7.67993H58.3201Z" fill="#759EFF"/>
<mask id="mask8_2027_3404" style="mask-type:luminance" maskUnits="userSpaceOnUse" x="56" y="7" width="16" height="65">
<mask id="mask9_2027_3404" style="mask-type:luminance" maskUnits="userSpaceOnUse" x="56" y="7" width="16" height="65">
<mask id="mask10_2027_3404" style="mask-type:luminance" maskUnits="userSpaceOnUse" x="56" y="7" width="16" height="65">
<path d="M58.3201 7.67993C57.2001 7.67993 56.3201 8.55993 56.3201 9.67993V69.6799C56.3201 70.7999 57.2001 71.6799 58.3201 71.6799H69.2001C70.3201 71.6799 71.2001 70.7999 71.2001 69.6799V9.67993C71.2001 8.55993 70.3201 7.67993 69.2001 7.67993H58.3201V7.67993Z" fill="white"/>
</mask>
<g mask="url(#mask10_2027_3404)">
<path d="M58.3201 7.67993C57.2001 7.67993 56.3201 8.55993 56.3201 9.67993V69.6799C56.3201 70.7999 57.2001 71.6799 58.3201 71.6799H69.2001C70.3201 71.6799 71.2001 70.7999 71.2001 69.6799V9.67993C71.2001 8.55993 70.3201 7.67993 69.2001 7.67993H58.3201Z" fill="white"/>
</g>
</mask>
<g mask="url(#mask9_2027_3404)">
<path d="M56.4001 6.95988C54.9601 6.95988 53.8401 7.91988 53.8401 9.11988V72.7999C53.8401 73.9999 54.9601 74.9599 56.4001 74.9599H70.2401C71.6801 74.9599 72.8001 73.9999 72.8001 72.7999V9.03988C72.8001 7.83988 71.6801 6.87988 70.2401 6.87988L56.4001 6.95988Z" fill="#759EFF"/>
</g>
</mask>
<g mask="url(#mask8_2027_3404)">
<mask id="mask11_2027_3404" style="mask-type:luminance" maskUnits="userSpaceOnUse" x="56" y="7" width="16" height="65">
<path d="M58.3201 7.67993C57.2001 7.67993 56.3201 8.55993 56.3201 9.67993V69.6799C56.3201 70.7999 57.2001 71.6799 58.3201 71.6799H69.2001C70.3201 71.6799 71.2001 70.7999 71.2001 69.6799V9.67993C71.2001 8.55993 70.3201 7.67993 69.2001 7.67993H58.3201V7.67993Z" fill="white"/>
</mask>
<g mask="url(#mask11_2027_3404)">
<path opacity="0.5" d="M63.7598 6.95996V74.88H72.7998V6.95996H63.7598Z" fill="url(#paint2_linear_2027_3404)"/>
</g>
</g>
<defs>
<linearGradient id="paint0_linear_2027_3404" x1="8.44444" y1="65.5519" x2="31.026" y2="70.9871" gradientUnits="userSpaceOnUse">
<stop stop-color="#011546"/>
<stop offset="1" stop-color="#759EFF" stop-opacity="0"/>
</linearGradient>
<linearGradient id="paint1_linear_2027_3404" x1="31.8302" y1="50.9823" x2="57.5982" y2="57.1847" gradientUnits="userSpaceOnUse">
<stop stop-color="#011546"/>
<stop offset="1" stop-color="#759EFF" stop-opacity="0"/>
</linearGradient>
<linearGradient id="paint2_linear_2027_3404" x1="56.927" y1="38.1872" x2="80.5646" y2="43.8768" gradientUnits="userSpaceOnUse">
<stop stop-color="#011546"/>
<stop offset="1" stop-color="#759EFF" stop-opacity="0"/>
</linearGradient>
</defs>
</svg>
