<svg width="80" height="80" viewBox="0 0 80 80" fill="none" xmlns="http://www.w3.org/2000/svg">
<path d="M70.7327 42.693L11.8812 53.6237C10.9307 53.7821 9.9802 53.1485 9.82178 52.198L2.61386 13.4653C2.45544 12.5148 3.08911 11.5643 4.0396 11.4059L62.8911 0.475188C63.8416 0.316772 64.7921 0.950436 64.9505 1.90093L72.1584 40.6336C72.3168 41.5841 71.6832 42.5346 70.7327 42.693Z" fill="#F9383D"/>
<path d="M10.8515 17.9802H70.7326C71.6831 17.9802 72.4752 18.7723 72.4752 19.7228V59.1683C72.4752 60.1188 71.6831 60.9109 70.7326 60.9109H10.8515C9.90097 60.9109 9.10889 60.1188 9.10889 59.1683V19.7228C9.10889 18.7723 9.90097 17.9802 10.8515 17.9802Z" fill="#759EFF"/>
<path d="M9.10889 28.3564H72.4752V32.3168H9.10889V28.3564Z" fill="#0E1A53"/>
</svg>
