<svg width="80" height="80" viewBox="0 0 80 80" fill="none" xmlns="http://www.w3.org/2000/svg">
<g clip-path="url(#clip0_2027_3465)">
<path d="M27.2799 46.72C37.9722 46.72 46.6399 38.0522 46.6399 27.36C46.6399 16.6678 37.9722 8 27.2799 8C16.5877 8 7.91992 16.6678 7.91992 27.36C7.91992 38.0522 16.5877 46.72 27.2799 46.72Z" fill="#F9383D"/>
<path d="M15.6799 42.5599C15.6799 41.9199 15.9199 41.3599 16.3999 40.9599L42.5599 18.3999C43.3599 17.7599 44.4799 17.7599 45.2799 18.3999L71.6799 41.0399C72.1599 41.4399 72.3999 41.9999 72.3999 42.6399V70.3999C72.3999 71.5199 71.4399 72.4799 70.3199 72.4799H17.7599C16.6399 72.4799 15.6799 71.5199 15.6799 70.3999V42.5599Z" fill="#759EFF"/>
<path d="M15.6799 42.5599C15.6799 41.9199 15.9199 41.3599 16.3999 40.9599L42.5599 18.3999C43.3599 17.7599 44.4799 17.7599 45.2799 18.3999L71.6799 41.0399C72.1599 41.4399 72.3999 41.9999 72.3999 42.6399V70.3999C72.3999 71.5199 71.4399 72.4799 70.3199 72.4799H17.7599C16.6399 72.4799 15.6799 71.5199 15.6799 70.3999V42.5599Z" fill="url(#paint0_linear_2027_3465)"/>
<path d="M53.6 79.1199C52.8 79.9199 51.52 79.9199 50.8 79.1199L15.44 44.2399C14.64 43.4399 14.64 42.0799 15.52 41.2799L40.72 20.1599C41.44 19.5999 42.4 19.5199 43.12 20.0799L70.64 39.3599C70.72 39.4399 70.88 39.5199 70.96 39.5999L80.16 49.4399C80.88 50.2399 80.88 51.4399 80.16 52.2399L53.6 79.1199Z" fill="url(#paint1_linear_2027_3465)"/>
<path d="M11.9997 48.0799C11.4397 48.0799 10.8797 47.8399 10.4797 47.3599C9.75965 46.5599 9.83965 45.2799 10.7197 44.5599L41.1997 18.1599C42.7997 16.8799 44.9597 16.8799 46.4797 18.0799L77.3597 44.5599C78.1597 45.2799 78.3197 46.5599 77.5997 47.3599C76.8797 48.1599 75.5997 48.3199 74.7997 47.5999L43.9997 21.1999C43.9997 21.1999 43.9197 21.1999 43.8397 21.2799L13.4397 47.5999C12.9597 47.9199 12.4797 48.0799 11.9997 48.0799Z" fill="#759EFF"/>
<path d="M76 49.0399C75.76 49.0399 75.52 48.9599 75.36 48.7999L44.56 22.3999C44.16 22.0799 43.52 22.0799 43.12 22.3999L12.64 48.7999C12.24 49.1199 11.6 49.1199 11.2 48.7199C10.8 48.3199 10.88 47.6799 11.28 47.2799L41.76 20.8799C42.96 19.9199 44.56 19.9199 45.76 20.8799L76.56 47.2799C76.96 47.5999 77.04 48.2399 76.64 48.7199C76.56 48.9599 76.32 49.0399 76 49.0399Z" fill="url(#paint2_linear_2027_3465)"/>
<path d="M52.24 42.6399H62.24V60.3999H52.24V42.6399Z" fill="url(#paint3_linear_2027_3465)"/>
<path d="M52.24 42.6399H60.64V58.3999H52.24V42.6399Z" fill="white"/>
</g>
<defs>
<linearGradient id="paint0_linear_2027_3465" x1="29.1647" y1="16.1247" x2="43.2079" y2="54.2311" gradientUnits="userSpaceOnUse">
<stop stop-color="#0E1A53"/>
<stop offset="1" stop-color="#759EFF"/>
</linearGradient>
<linearGradient id="paint1_linear_2027_3465" x1="38.4256" y1="22.7519" x2="53.088" y2="60.4831" gradientUnits="userSpaceOnUse">
<stop stop-color="#0E1A53"/>
<stop offset="1" stop-color="#0E1A53" stop-opacity="0"/>
</linearGradient>
<linearGradient id="paint2_linear_2027_3465" x1="32.9512" y1="23.9207" x2="44.0184" y2="48.1191" gradientUnits="userSpaceOnUse">
<stop stop-color="#011546"/>
<stop offset="0.699" stop-color="#759EFF"/>
</linearGradient>
<linearGradient id="paint3_linear_2027_3465" x1="54.1688" y1="43.8503" x2="60.9512" y2="60.7887" gradientUnits="userSpaceOnUse">
<stop stop-color="#15225E"/>
<stop offset="1" stop-color="#E8EFFF"/>
</linearGradient>
<clipPath id="clip0_2027_3465">
<rect width="80" height="80" fill="white"/>
</clipPath>
</defs>
</svg>
