<svg width="80" height="80" viewBox="0 0 80 80" fill="none" xmlns="http://www.w3.org/2000/svg">
<path d="M71.9202 37.92C71.9202 25.2 58.7202 14.88 42.4802 14.88C38.2402 14.88 35.6002 15.12 32.0802 16.32C31.8402 16.4 31.5202 16.4 31.2802 16.24C29.0402 14.96 25.6002 12.88 23.6002 11.84C22.9602 11.52 22.1602 12 22.1602 12.72V20.64C22.1602 20.96 22.0002 21.2 21.8402 21.36C18.1602 24.32 15.2802 28.24 13.9202 32.48C13.7602 32.88 13.4402 33.2 12.9602 33.2H10.7202C9.12017 33.2 7.92017 34.48 7.92017 36V40.4C7.92017 42 9.20017 43.2 10.7202 43.2H13.1202C13.5202 43.2 13.9202 43.44 14.0802 43.84C15.8402 48.96 19.8402 53.44 25.1202 56.48C25.4402 56.64 25.6002 56.96 25.6002 57.36L25.5202 65.04C25.5202 65.6 25.9202 66 26.4802 66L26.9602 66.08C29.1202 66.4 31.3602 66.4 33.6002 66.08L34.2402 66C34.8002 65.92 35.2002 65.52 35.2002 65.04V61.44C35.2002 60.8 35.7602 60.4 36.3202 60.48C38.3202 60.8 40.3202 60.96 42.4802 60.96C45.6802 60.96 48.8002 60.56 51.6802 59.84C52.3202 59.68 52.8802 60.16 52.8802 60.8L52.9602 65.2C52.9602 65.76 53.3602 66.08 53.9202 66.16H54.1602C56.4802 66.48 58.8802 66.4 61.2002 66.08C61.7602 65.92 62.1602 65.6 62.1602 65.12L62.0802 55.68C62.0802 55.36 62.2402 55.04 62.4802 54.88C68.2402 50.64 71.9202 44.64 71.9202 37.92Z" fill="#759EFF"/>
<mask id="mask0_4056_2851" style="mask-type:luminance" maskUnits="userSpaceOnUse" x="7" y="11" width="65" height="56">
<path d="M71.9202 37.92C71.9202 25.2 58.7202 14.88 42.4802 14.88C38.2402 14.88 35.6002 15.12 32.0802 16.32C31.8402 16.4 31.5202 16.4 31.2802 16.24C29.0402 14.96 25.6002 12.88 23.6002 11.84C22.9602 11.52 22.1602 12 22.1602 12.72V20.64C22.1602 20.96 22.0002 21.2 21.8402 21.36C18.1602 24.32 15.2802 28.24 13.9202 32.48C13.7602 32.88 13.4402 33.2 12.9602 33.2H10.7202C9.12017 33.2 7.92017 34.48 7.92017 36V40.4C7.92017 42 9.20017 43.2 10.7202 43.2H13.1202C13.5202 43.2 13.9202 43.44 14.0802 43.84C15.8402 48.96 19.8402 53.44 25.1202 56.48C25.4402 56.64 25.6002 56.96 25.6002 57.36L25.5202 65.04C25.5202 65.6 25.9202 66 26.4802 66L26.9602 66.08C29.1202 66.4 31.3602 66.4 33.6002 66.08L34.2402 66C34.8002 65.92 35.2002 65.52 35.2002 65.04V61.44C35.2002 60.8 35.7602 60.4 36.3202 60.48C38.3202 60.8 40.3202 60.96 42.4802 60.96C45.6802 60.96 48.8002 60.56 51.6802 59.84C52.3202 59.68 52.8802 60.16 52.8802 60.8L52.9602 65.2C52.9602 65.76 53.3602 66.08 53.9202 66.16H54.1602C56.4802 66.48 58.8802 66.4 61.2002 66.08C61.7602 65.92 62.1602 65.6 62.1602 65.12L62.0802 55.68C62.0802 55.36 62.2402 55.04 62.4802 54.88C68.2402 50.64 71.9202 44.64 71.9202 37.92Z" fill="white"/>
</mask>
<g mask="url(#mask0_4056_2851)">
<path d="M18.72 -3.04004L95.76 -4.48004L60.88 79.92L-12.96 82.64L18.72 -3.04004Z" fill="url(#paint0_linear_4056_2851)"/>
</g>
<mask id="mask1_4056_2851" style="mask-type:luminance" maskUnits="userSpaceOnUse" x="7" y="11" width="65" height="56">
<path d="M71.9202 37.92C71.9202 25.2 58.7202 14.88 42.4802 14.88C38.2402 14.88 35.6002 15.12 32.0802 16.32C31.8402 16.4 31.5202 16.4 31.2802 16.24C29.0402 14.96 25.6002 12.88 23.6002 11.84C22.9602 11.52 22.1602 12 22.1602 12.72V20.64C22.1602 20.96 22.0002 21.2 21.8402 21.36C18.1602 24.32 15.2802 28.24 13.9202 32.48C13.7602 32.88 13.4402 33.2 12.9602 33.2H10.7202C9.12017 33.2 7.92017 34.48 7.92017 36V40.4C7.92017 42 9.20017 43.2 10.7202 43.2H13.1202C13.5202 43.2 13.9202 43.44 14.0802 43.84C15.8402 48.96 19.8402 53.44 25.1202 56.48C25.4402 56.64 25.6002 56.96 25.6002 57.36L25.5202 65.04C25.5202 65.6 25.9202 66 26.4802 66L26.9602 66.08C29.1202 66.4 31.3602 66.4 33.6002 66.08L34.2402 66C34.8002 65.92 35.2002 65.52 35.2002 65.04V61.44C35.2002 60.8 35.7602 60.4 36.3202 60.48C38.3202 60.8 40.3202 60.96 42.4802 60.96C45.6802 60.96 48.8002 60.56 51.6802 59.84C52.3202 59.68 52.8802 60.16 52.8802 60.8L52.9602 65.2C52.9602 65.76 53.3602 66.08 53.9202 66.16H54.1602C56.4802 66.48 58.8802 66.4 61.2002 66.08C61.7602 65.92 62.1602 65.6 62.1602 65.12L62.0802 55.68C62.0802 55.36 62.2402 55.04 62.4802 54.88C68.2402 50.64 71.9202 44.64 71.9202 37.92Z" fill="white"/>
</mask>
<g mask="url(#mask1_4056_2851)">
<path d="M65.2002 55.52H23.6802V66.88H65.2002V55.52Z" fill="url(#paint1_linear_4056_2851)"/>
</g>
<path d="M50.1602 19.84H36.2402C35.6802 19.84 35.2002 19.36 35.2002 18.8C35.2002 18.24 35.6802 17.76 36.2402 17.76H50.0802C50.6402 17.76 51.1202 18.24 51.1202 18.8C51.2002 19.36 50.7202 19.84 50.1602 19.84Z" fill="#011546"/>
<path d="M21.04 33.12C22.1446 33.12 23.04 32.2246 23.04 31.12C23.04 30.0154 22.1446 29.12 21.04 29.12C19.9355 29.12 19.04 30.0154 19.04 31.12C19.04 32.2246 19.9355 33.12 21.04 33.12Z" fill="#011546"/>
<path d="M22.08 12.72L25.2 18.32C25.68 19.12 25.28 20.16 24.4 20.48L21.76 21.44L22.08 12.72Z" fill="#011546"/>
<path d="M7.91992 36V39.12C8.79992 39.12 9.43992 38.4 9.43992 37.6C9.43992 36.64 8.71992 36 7.91992 36Z" fill="#011546"/>
<path d="M62.16 63.28H52.96V64H62.16V63.28Z" fill="#F9383D"/>
<path d="M35.2 63.28H25.52V64H35.2V63.28Z" fill="#F9383D"/>
<defs>
<linearGradient id="paint0_linear_4056_2851" x1="62.8191" y1="79.0095" x2="23.2884" y2="-5.18493" gradientUnits="userSpaceOnUse">
<stop offset="0.2628" stop-color="#1C2F5A" stop-opacity="0.7"/>
<stop offset="0.3131" stop-color="#2D3F67" stop-opacity="0.6224"/>
<stop offset="0.4131" stop-color="#5A6887" stop-opacity="0.4679"/>
<stop offset="0.5535" stop-color="#A3ABBC" stop-opacity="0.251"/>
<stop offset="0.7161" stop-color="white" stop-opacity="0"/>
<stop offset="0.9983" stop-color="white" stop-opacity="0"/>
</linearGradient>
<linearGradient id="paint1_linear_4056_2851" x1="44.4402" y1="66.88" x2="44.4402" y2="55.52" gradientUnits="userSpaceOnUse">
<stop stop-color="#1C2F5A"/>
<stop offset="0.4069" stop-color="#0B1E4D" stop-opacity="0.3213"/>
<stop offset="0.5995" stop-color="#011546" stop-opacity="0"/>
<stop offset="0.9983" stop-color="#011546" stop-opacity="0"/>
</linearGradient>
</defs>
</svg>
