<svg width="80" height="80" viewBox="0 0 80 80" fill="none" xmlns="http://www.w3.org/2000/svg">
<mask id="mask0_2027_3507" style="mask-type:luminance" maskUnits="userSpaceOnUse" x="7" y="7" width="65" height="65">
<path d="M39.92 71.9199C57.5932 71.9199 71.92 57.593 71.92 39.9199C71.92 22.2468 57.5932 7.91992 39.92 7.91992C22.2469 7.91992 7.92004 22.2468 7.92004 39.9199C7.92004 57.593 22.2469 71.9199 39.92 71.9199Z" fill="white"/>
</mask>
<g mask="url(#mask0_2027_3507)">
<path d="M71.6001 35.9999C71.2801 32.7999 70.5601 29.6799 69.2801 26.6399C68.4001 24.5599 67.3601 22.4799 65.9201 20.6399C63.4401 17.2799 60.3201 14.6399 56.8001 12.4799C52.8801 10.1599 48.7201 8.63994 44.1601 8.07994C40.8001 7.67994 37.3601 7.75994 34.0001 8.39994C29.8401 9.19994 26.0001 10.7199 22.4001 13.0399C19.8401 14.7199 17.5201 16.6399 15.4401 18.9599C13.5201 21.1199 12.0001 23.4399 10.7201 25.9999C9.28008 28.9599 8.40008 31.9999 8.00008 35.2799C7.68008 37.5999 7.68008 39.9199 7.84008 42.2399C8.00008 44.7199 8.48008 47.1999 9.28008 49.5999C10.3201 52.7999 11.8401 55.7599 13.7601 58.4799C15.6801 61.1999 18.0001 63.5199 20.7201 65.5199C23.2001 67.3599 25.8401 68.7999 28.7201 69.8399C32.2401 71.1199 35.7601 71.8399 39.5201 71.8399C41.9201 71.8399 44.3201 71.5999 46.6401 71.0399C49.2801 70.3999 51.7601 69.4399 54.1601 68.2399C56.2401 67.1999 58.0801 65.8399 59.8401 64.3999C62.0801 62.5599 63.9201 60.4799 65.6001 58.1599C67.4401 55.5199 68.8801 52.7199 69.9201 49.6799C70.6401 47.5199 71.1201 45.2799 71.3601 42.9599C71.8401 40.7199 71.8401 38.3199 71.6001 35.9999ZM20.4801 22.3999C21.2801 21.5199 22.1601 20.6399 23.1201 19.8399C25.7601 17.5999 28.8801 15.9199 32.2401 14.9599C35.4401 13.9999 38.8001 13.6799 42.1601 13.9199C44.8801 14.1599 47.5201 14.7199 50.0001 15.7599C52.7201 16.8799 55.2801 18.4799 57.4401 20.4799C57.6801 20.7199 57.9201 21.0399 58.1601 21.2799C58.5601 21.7599 58.5601 22.2399 58.0801 22.6399C57.2801 23.2799 56.4801 23.8399 55.6801 24.3999C54.1601 25.4399 52.7201 26.3999 51.2001 27.4399C50.9601 27.5999 50.8001 27.6799 50.9601 27.9999C51.0401 28.0799 50.9601 28.2399 50.8801 28.3199C49.2801 29.3599 47.7601 30.6399 46.0001 31.4399C43.9201 32.3999 41.7601 32.6399 40.1601 32.7199C36.5601 32.7199 33.7601 31.9999 31.2001 30.3999C30.1601 29.7599 29.1201 29.1999 28.0801 28.6399C27.8401 28.4799 27.6801 28.3999 27.7601 28.0799C27.7601 27.9999 27.6801 27.7599 27.5201 27.6799C25.7601 26.6399 24.0001 25.6799 22.2401 24.6399C21.7601 24.3999 21.2801 24.0799 20.8001 23.8399C20.0801 23.3599 19.9201 22.9599 20.4801 22.3999ZM47.8401 36.3199L52.0801 33.7599C52.4001 33.5199 52.8801 33.6799 53.1201 33.9999C53.3601 34.3199 53.2001 34.7999 52.8801 35.0399L48.6401 37.5999C48.3201 37.8399 47.8401 37.6799 47.6001 37.3599C47.3601 36.9599 47.4401 36.5599 47.8401 36.3199ZM46.9601 34.9599C46.6401 35.1999 46.1601 35.0399 45.9201 34.7199C45.6801 34.3999 45.8401 33.9199 46.1601 33.6799L50.4001 31.1199C50.7201 30.8799 51.2001 31.0399 51.4401 31.3599C51.6801 31.6799 51.5201 32.1599 51.2001 32.3999L46.9601 34.9599ZM28.4801 32.7199C28.0801 32.5599 28.0001 32.0799 28.1601 31.6799C28.3201 31.2799 28.8001 31.1999 29.2001 31.3599L33.6001 33.5999C34.0001 33.7599 34.0801 34.2399 33.9201 34.6399C33.7601 35.0399 33.2801 35.1199 32.8801 34.9599L28.4801 32.7199ZM32.4001 37.4399C32.2401 37.8399 31.7601 37.9199 31.3601 37.7599L26.9601 35.5199C26.5601 35.3599 26.4801 34.8799 26.6401 34.4799C26.8001 34.0799 27.2801 33.9999 27.6801 34.1599L32.0801 36.3999C32.4801 36.6399 32.6401 37.0399 32.4001 37.4399ZM35.6001 55.9999C35.5201 56.1599 35.2801 56.2399 35.2801 56.3999L35.0401 62.1599C35.0401 62.8799 34.9601 63.6799 34.9601 64.3999C34.9601 64.8799 34.6401 65.1999 34.1601 65.1199C33.5201 65.0399 32.8801 64.9599 32.2401 64.7999C28.8801 63.8399 25.8401 62.1599 23.1201 59.9999C20.8001 58.1599 18.8801 55.9199 17.2801 53.3599C15.6001 50.6399 14.4801 47.6799 13.9201 44.4799C13.3601 41.4399 13.4401 38.3199 13.9201 35.2799C14.0001 34.6399 14.1601 33.9999 14.4001 33.3599C14.6401 32.5599 15.1201 32.3999 15.8401 32.7999C18.0801 33.9199 20.3201 35.0399 22.6401 36.1599C22.8801 36.2399 23.1201 36.3999 23.3601 36.1599C23.4401 36.0799 23.6001 36.0799 23.6801 36.1599C25.8401 37.2799 28.1601 38.1599 30.0801 39.5999C33.1201 41.9999 35.2001 45.1199 35.8401 48.9599L35.9201 55.5999C35.8401 55.7599 35.6801 55.8399 35.6001 55.9999ZM39.5201 53.9999C39.5201 54.3999 39.2001 54.7199 38.7201 54.7199C38.3201 54.7199 37.9201 54.3999 37.9201 53.9999V49.1199C37.9201 48.7199 38.2401 48.3999 38.7201 48.3999C39.1201 48.3999 39.5201 48.7199 39.5201 49.1199V53.9999ZM42.7201 53.9999C42.7201 54.3999 42.4001 54.7199 41.9201 54.7199C41.5201 54.7199 41.1201 54.3999 41.1201 53.9999V49.1199C41.1201 48.7199 41.4401 48.3999 41.9201 48.3999C42.3201 48.3999 42.7201 48.7199 42.7201 49.1199V53.9999ZM40.0801 44.3199C37.7601 44.3999 35.9201 42.5599 35.8401 40.1599C35.8401 37.9199 37.8401 35.9199 40.2401 35.9199C42.4001 35.9199 44.1601 37.7599 44.2401 40.0799C44.2401 42.3199 42.4001 44.2399 40.0801 44.3199ZM65.3601 44.6399C64.4801 48.7999 62.8001 52.4799 60.1601 55.8399C57.9201 58.6399 55.2801 60.8799 52.1601 62.5599C50.5601 63.4399 48.8801 64.2399 47.1201 64.6399C46.8801 64.7199 46.6401 64.7999 46.4001 64.7999C45.8401 64.7999 45.5201 64.5599 45.5201 63.9999L45.2801 56.3199C45.2801 56.0799 45.2801 55.9199 44.9601 55.9199C44.8801 55.9199 44.7201 55.7599 44.7201 55.6799C44.7201 52.7999 44.3201 49.9199 45.2801 47.1199C46.4801 43.5199 48.4801 40.3199 51.6001 38.0799C52.8001 37.1999 54.1601 36.4799 55.5201 35.6799C55.6801 35.5999 55.9201 35.5999 56.0001 35.6799C56.3201 35.8399 56.5601 35.8399 56.8001 35.5999C58.8001 34.3999 60.8801 33.1199 62.8801 31.9199C63.0401 31.8399 63.2001 31.6799 63.4401 31.5999C64.0001 31.2799 64.4001 31.4399 64.5601 32.0799C64.8801 33.3599 65.2801 34.5599 65.5201 35.8399C66.0801 38.7999 65.9201 41.7599 65.3601 44.6399Z" fill="#001547"/>
<mask id="mask1_2027_3507" style="mask-type:luminance" maskUnits="userSpaceOnUse" x="7" y="7" width="65" height="65">
<path d="M71.6001 35.9999C71.2801 32.7999 70.5601 29.6799 69.2801 26.6399C68.4001 24.5599 67.3601 22.4799 65.9201 20.6399C63.4401 17.2799 60.3201 14.6399 56.8001 12.4799C52.8801 10.1599 48.7201 8.63994 44.1601 8.07994C40.8001 7.67994 37.3601 7.75994 34.0001 8.39994C29.8401 9.19994 26.0001 10.7199 22.4001 13.0399C19.8401 14.7199 17.5201 16.6399 15.4401 18.9599C13.5201 21.1199 12.0001 23.4399 10.7201 25.9999C9.28008 28.9599 8.40008 31.9999 8.00008 35.2799C7.68008 37.5999 7.68008 39.9199 7.84008 42.2399C8.00008 44.7199 8.48008 47.1999 9.28008 49.5999C10.3201 52.7999 11.8401 55.7599 13.7601 58.4799C15.6801 61.1999 18.0001 63.5199 20.7201 65.5199C23.2001 67.3599 25.8401 68.7999 28.7201 69.8399C32.2401 71.1199 35.7601 71.8399 39.5201 71.8399C41.9201 71.8399 44.3201 71.5999 46.6401 71.0399C49.2801 70.3999 51.7601 69.4399 54.1601 68.2399C56.2401 67.1999 58.0801 65.8399 59.8401 64.3999C62.0801 62.5599 63.9201 60.4799 65.6001 58.1599C67.4401 55.5199 68.8801 52.7199 69.9201 49.6799C70.6401 47.5199 71.1201 45.2799 71.3601 42.9599C71.8401 40.7199 71.8401 38.3199 71.6001 35.9999V35.9999ZM20.4801 22.3999C21.2801 21.5199 22.1601 20.6399 23.1201 19.8399C25.7601 17.5999 28.8801 15.9199 32.2401 14.9599C35.4401 13.9999 38.8001 13.6799 42.1601 13.9199C44.8801 14.1599 47.5201 14.7199 50.0001 15.7599C52.7201 16.8799 55.2801 18.4799 57.4401 20.4799C57.6801 20.7199 57.9201 21.0399 58.1601 21.2799C58.5601 21.7599 58.5601 22.2399 58.0801 22.6399C57.2801 23.2799 56.4801 23.8399 55.6801 24.3999C54.1601 25.4399 52.7201 26.3999 51.2001 27.4399C50.9601 27.5999 50.8001 27.6799 50.9601 27.9999C51.0401 28.0799 50.9601 28.2399 50.8801 28.3199C49.2801 29.3599 47.7601 30.6399 46.0001 31.4399C43.9201 32.3999 41.7601 32.6399 40.1601 32.7199C36.5601 32.7199 33.7601 31.9999 31.2001 30.3999C30.1601 29.7599 29.1201 29.1999 28.0801 28.6399C27.8401 28.4799 27.6801 28.3999 27.7601 28.0799C27.7601 27.9999 27.6801 27.7599 27.5201 27.6799C25.7601 26.6399 24.0001 25.6799 22.2401 24.6399C21.7601 24.3999 21.2801 24.0799 20.8001 23.8399C20.0801 23.3599 19.9201 22.9599 20.4801 22.3999V22.3999ZM47.8401 36.3199L52.0801 33.7599C52.4001 33.5199 52.8801 33.6799 53.1201 33.9999C53.3601 34.3199 53.2001 34.7999 52.8801 35.0399L48.6401 37.5999C48.3201 37.8399 47.8401 37.6799 47.6001 37.3599C47.3601 36.9599 47.4401 36.5599 47.8401 36.3199V36.3199ZM46.9601 34.9599C46.6401 35.1999 46.1601 35.0399 45.9201 34.7199C45.6801 34.3999 45.8401 33.9199 46.1601 33.6799L50.4001 31.1199C50.7201 30.8799 51.2001 31.0399 51.4401 31.3599C51.6801 31.6799 51.5201 32.1599 51.2001 32.3999L46.9601 34.9599ZM28.4801 32.7199C28.0801 32.5599 28.0001 32.0799 28.1601 31.6799C28.3201 31.2799 28.8001 31.1999 29.2001 31.3599L33.6001 33.5999C34.0001 33.7599 34.0801 34.2399 33.9201 34.6399C33.7601 35.0399 33.2801 35.1199 32.8801 34.9599L28.4801 32.7199ZM32.4001 37.4399C32.2401 37.8399 31.7601 37.9199 31.3601 37.7599L26.9601 35.5199C26.5601 35.3599 26.4801 34.8799 26.6401 34.4799C26.8001 34.0799 27.2801 33.9999 27.6801 34.1599L32.0801 36.3999C32.4801 36.6399 32.6401 37.0399 32.4001 37.4399ZM35.6001 55.9999C35.5201 56.1599 35.2801 56.2399 35.2801 56.3999L35.0401 62.1599C35.0401 62.8799 34.9601 63.6799 34.9601 64.3999C34.9601 64.8799 34.6401 65.1999 34.1601 65.1199C33.5201 65.0399 32.8801 64.9599 32.2401 64.7999C28.8801 63.8399 25.8401 62.1599 23.1201 59.9999C20.8001 58.1599 18.8801 55.9199 17.2801 53.3599C15.6001 50.6399 14.4801 47.6799 13.9201 44.4799C13.3601 41.4399 13.4401 38.3199 13.9201 35.2799C14.0001 34.6399 14.1601 33.9999 14.4001 33.3599C14.6401 32.5599 15.1201 32.3999 15.8401 32.7999C18.0801 33.9199 20.3201 35.0399 22.6401 36.1599C22.8801 36.2399 23.1201 36.3999 23.3601 36.1599C23.4401 36.0799 23.6001 36.0799 23.6801 36.1599C25.8401 37.2799 28.1601 38.1599 30.0801 39.5999C33.1201 41.9999 35.2001 45.1199 35.8401 48.9599L35.9201 55.5999C35.8401 55.7599 35.6801 55.8399 35.6001 55.9999V55.9999ZM39.5201 53.9999C39.5201 54.3999 39.2001 54.7199 38.7201 54.7199C38.3201 54.7199 37.9201 54.3999 37.9201 53.9999V49.1199C37.9201 48.7199 38.2401 48.3999 38.7201 48.3999C39.1201 48.3999 39.5201 48.7199 39.5201 49.1199V53.9999ZM42.7201 53.9999C42.7201 54.3999 42.4001 54.7199 41.9201 54.7199C41.5201 54.7199 41.1201 54.3999 41.1201 53.9999V49.1199C41.1201 48.7199 41.4401 48.3999 41.9201 48.3999C42.3201 48.3999 42.7201 48.7199 42.7201 49.1199V53.9999ZM40.0801 44.3199C37.7601 44.3999 35.9201 42.5599 35.8401 40.1599C35.8401 37.9199 37.8401 35.9199 40.2401 35.9199C42.4001 35.9199 44.1601 37.7599 44.2401 40.0799C44.2401 42.3199 42.4001 44.2399 40.0801 44.3199ZM65.3601 44.6399C64.4801 48.7999 62.8001 52.4799 60.1601 55.8399C57.9201 58.6399 55.2801 60.8799 52.1601 62.5599C50.5601 63.4399 48.8801 64.2399 47.1201 64.6399C46.8801 64.7199 46.6401 64.7999 46.4001 64.7999C45.8401 64.7999 45.5201 64.5599 45.5201 63.9999L45.2801 56.3199C45.2801 56.0799 45.2801 55.9199 44.9601 55.9199C44.8801 55.9199 44.7201 55.7599 44.7201 55.6799C44.7201 52.7999 44.3201 49.9199 45.2801 47.1199C46.4801 43.5199 48.4801 40.3199 51.6001 38.0799C52.8001 37.1999 54.1601 36.4799 55.5201 35.6799C55.6801 35.5999 55.9201 35.5999 56.0001 35.6799C56.3201 35.8399 56.5601 35.8399 56.8001 35.5999C58.8001 34.3999 60.8801 33.1199 62.8801 31.9199C63.0401 31.8399 63.2001 31.6799 63.4401 31.5999C64.0001 31.2799 64.4001 31.4399 64.5601 32.0799C64.8801 33.3599 65.2801 34.5599 65.5201 35.8399C66.0801 38.7999 65.9201 41.7599 65.3601 44.6399V44.6399Z" fill="white"/>
</mask>
<g mask="url(#mask1_2027_3507)">
<path d="M28.9597 93.84L-24.3203 33.6L37.6797 -20.24L90.9597 40L28.9597 93.84Z" fill="url(#paint0_linear_2027_3507)"/>
</g>
</g>
<defs>
<linearGradient id="paint0_linear_2027_3507" x1="6.62882" y1="6.28721" x2="59.8574" y2="67.0448" gradientUnits="userSpaceOnUse">
<stop stop-color="white" stop-opacity="0.3"/>
<stop offset="0.05" stop-color="#FDEFEF" stop-opacity="0.285"/>
<stop offset="0.231" stop-color="#F5B9BA" stop-opacity="0.231"/>
<stop offset="0.409" stop-color="#EE8C8E" stop-opacity="0.178"/>
<stop offset="0.578" stop-color="#E9696C" stop-opacity="0.128"/>
<stop offset="0.737" stop-color="#E55053" stop-opacity="0.081"/>
<stop offset="0.882" stop-color="#E34144" stop-opacity="0.038"/>
<stop offset="1" stop-color="#E33C3F" stop-opacity="0"/>
</linearGradient>
</defs>
</svg>
