<svg width="80" height="80" viewBox="0 0 80 80" fill="none" xmlns="http://www.w3.org/2000/svg">
<path d="M44.0396 71.6833C41.505 71.6833 39.4456 69.6239 39.4456 67.0892V8.63379H41.4258V67.0892C41.4258 68.515 42.6139 69.7031 44.0396 69.7031C45.4654 69.7031 46.7327 68.515 46.7327 67.0892H48.7129C48.7129 69.6239 46.5743 71.6833 44.0396 71.6833Z" fill="#011546"/>
<path d="M72.1585 36.5939C66.9308 36.9108 62.0199 38.4949 57.5843 41.0296C55.0496 40.3959 52.4357 40.0791 49.7427 40.0791C46.4952 40.0791 43.3268 40.5543 40.3169 41.4256C37.307 40.5543 34.1387 40.0791 30.8912 40.0791C27.7229 40.0791 24.713 40.5543 21.7823 41.3464C17.5843 38.8117 12.911 37.2276 7.9209 36.6731C14.3367 24.2375 26.2971 15.9207 40.0793 15.9207C53.7823 15.9207 65.7427 24.2375 72.1585 36.5939Z" fill="#759EFF"/>
<path d="M40.396 16C51.3267 19.4059 56.3168 33.7426 57.5841 41.0297L53.1485 40.2376C50.3762 39.9208 47.6039 39.9208 44.8316 40.396L40.396 41.3465V16Z" fill="url(#paint0_linear_2027_3514)"/>
<path d="M40.396 16C28.6732 19.4059 23.2871 34.0594 21.8613 41.3465L24.5544 40.9505C28.6732 39.8416 33.5049 40.0792 40.3168 41.1089V42.6139V16H40.396Z" fill="url(#paint1_linear_2027_3514)"/>
<defs>
<linearGradient id="paint0_linear_2027_3514" x1="26.7002" y1="13.825" x2="54.4879" y2="41.2507" gradientUnits="userSpaceOnUse">
<stop offset="0.162" stop-color="#011546"/>
<stop offset="1" stop-color="#011546" stop-opacity="0"/>
</linearGradient>
<linearGradient id="paint1_linear_2027_3514" x1="19.1778" y1="27.3038" x2="32.7184" y2="28.8547" gradientUnits="userSpaceOnUse">
<stop offset="0.162" stop-color="#011546"/>
<stop offset="1" stop-color="#011546" stop-opacity="0"/>
</linearGradient>
</defs>
</svg>
